# xmcd
#
# Track frame offsets:
#	150
#	15022
#	26877
#	44337
#	59075
#	74200
#	90942
#	106760
#	123780
#	139690
#	156875
#	175060
#	191387
#	205977
#	224762
#	236352
#	257232
#	268122
#	287865
#	301412
#
# Disc length: 4206 seconds
#
# Revision: 2
# Processed by: cddbd v1.5.1PL2 Copyright (c) Steve Scherf et al.
# Submitted via: audiograbber 1.83.01
#
DISCID=25106c14
DTITLE=Various Artist - Country Hit Parade ( Disc 3 )
DYEAR=1900
DGENRE=Country
TTITLE0=Alabama - Hometown Honeymoon
TTITLE1=Martina McBride - My Baby Loves Me
TTITLE2=John Anderson - When it Comes to You
TTITLE3=The Judds:  Wynonna and Naomi - Mama He's Crazy
TTITLE4=Earl Thomas Conley - Duet with Keith Whitley - Brotherly Love
TTITLE5=Ronnie Milsap - Turn That Radio On
TTITLE6=Aaron Tippin - Working Man's Ph.D.
TTITLE7=Restless Heart - When She Cries
TTITLE8=Radney Foster - Nobody Wins
TTITLE9=Doug Supernaw - I Don't Call Him Daddy
TTITLE10=Clint Black - No Time to Kill
TTITLE11=Lorrie Morgan - Watch Me
TTITLE12=Shenandoah - Leavin's Been a Long Time Comin'
TTITLE13=K.T. Oslin - I'll Alway Come Back
TTITLE14=Larry Stewart - Alright Already
TTITLE15=Lee Roy Parnell - On the Road
TTITLE16=Alan Jackson - She's Got the Rythm, and I Got the Blues
TTITLE17=Brooks and Dunn - Neon Moon
TTITLE18=Diamond Rio - In a Week or Two
TTITLE19=Pam Tillis - Shake the Sugar Tree
EXTD=
EXTT0=
EXTT1=
EXTT2=
EXTT3=
EXTT4=
EXTT5=
EXTT6=
EXTT7=
EXTT8=
EXTT9=
EXTT10=
EXTT11=
EXTT12=
EXTT13=
EXTT14=
EXTT15=
EXTT16=
EXTT17=
EXTT18=
EXTT19=
PLAYORDER=
